<svg version="1.0" xmlns="http://www.w3.org/2000/svg" width="1920" height="1920" viewBox="0 0 1440 1440"><path d="M733.5 1c-3.7 1.7-14 6.3-14.5 6.5-2.6.7-5.6 1.9-6 2.4-.3.3-6 3.3-12.7 6.6-6.8 3.3-12.3 6.3-12.3 6.7 0 .5-.6.8-1.2.8-1.1.1-11 6.1-14.3 8.7-.5.4-2.2 1.4-3.6 2.2-2.5 1.2-28.8 20.6-29.9 22-.3.3-2.7 2.4-5.5 4.6-7.5 5.9-24 22.2-29.3 29-2.5 3.3-5.5 6.9-6.4 8-1 1-3.7 4.9-6.1 8.5-2.3 3.6-4.5 6.6-4.9 6.8-.5.2-.8.8-.8 1.3s-1.1 2.6-2.3 4.7c-4.3 6.7-9.7 17.2-9.7 18.7 0 .8-.4 1.5-1 1.5-.5 0-1 .8-1 1.8s-.6 2.6-1.4 3.7c-.7 1.1-1.9 3.8-2.6 6-.7 2.2-1.7 4.6-2.3 5.2-.5.7-.7 1.3-.3 1.3.3 0-.1 1.6-.9 3.6-1.5 3.6-4.1 12.5-5.1 17.4-.3 1.4-.9 4.1-1.4 6-.5 1.9-1.1 5.3-1.5 7.5-.3 2.2-1 6.9-1.6 10.4-.5 3.5-1.2 10.9-1.3 16.3-.3 7.7-.8 10.5-2.2 12.4-1 1.3-2.2 2.4-2.5 2.4-1.9 0-27.3 24.7-34.4 33.4-6.6 8.1-16 20.8-18.5 25.1-1.3 2.2-2.7 4.2-3 4.5-1.6 1.2-14.1 28.4-16.9 36.5-3.2 9.6-5.9 19.8-6.7 25.5-.3 1.9-.8 4.8-1.1 6.5-1.1 4.8-1.2 7.2-1.8 22.8l-.5 14.8-7.3 7.3c-17.7 17.9-32.3 37.3-41.8 55.6-1.8 3.6-3.7 6.6-4.1 6.8-.4.2-.8.8-.8 1.3 0 .6-1.1 3.5-2.5 6.5s-2.5 5.9-2.5 6.4c0 .6-.4 1-1 1-.5 0-.9.3-.8.7.2 1.1-1.3 6.6-2.2 7.8-.6.8-3.1 7.5-3.5 9.5-.5 2.2-2.7 9.8-3.2 11-.9 2-2.4 8.6-3.8 16-.3 1.4-.9 4.7-1.4 7.5-4.2 22-4.4 54.4-.5 76 .4 2.1 1.5 9.7 1.6 10.5.1 2-.4 3-1.6 3-3.4 0-22.6 21.1-22.6 24.8 0 .5-.9 2.7-2 5-1.1 2.2-2.2 5.1-2.4 6.4-.3 1.3-.5 2.3-.7 2.3-.5 0-1.1 6-1.3 14.8-.4 11.7 1.4 19.5 7.1 30.6 4.1 8.2 13.6 18.7 21.3 23.8 4.7 3 13.4 7.3 16 7.8.8.2 1.6.4 1.8.5.8.7 10.7 2.3 14.9 2.5 2.4.1 4.6.5 5 .9.4.4.8 27.1.9 59.4.1 62.2.1 62.7 4.9 72.3 2.6 5 12.9 15.9 15.1 15.9.8 0 1.4.4 1.4.9s.8 1.1 1.8 1.4c.9.3 3.7 1.3 6.2 2.2 6.1 2.3 26.4 3.6 29.1 2 .5-.4.9-.1.9.5s.4.9.9.6c1.6-1 15.2-.9 16.2.1.6.6 1.2 3 1.4 5.4.6 5.7 1.5 13.6 2 17.4.2 1.6.6 5.7 1 9 .3 3.3.8 7.3 1 9 .2 1.6.7 5.5 1 8.5.3 3 .7 6.5 1 7.8.2 1.3.7 5.1 1 8.5.3 3.4.8 7.5 1 9.2.2 1.6.6 5.2.9 8 .3 2.7.7 6.6 1 8.5.3 1.9.8 6 1.1 9 .3 3 .7 7.2 1 9.2 1.1 8.3 1.7 13.5 2 17.3.1 2.2.5 5.8.9 8 .7 4.5 1.6 12.3 2.1 17.5.2 1.9.6 5.1.9 7 .5 3.6 1.1 9.2 2.1 19 .4 3 .9 7.1 1.1 9 .3 1.9.7 5.5.9 8 .2 2.5.6 6.1.9 8 .3 1.9 1.2 9.8 2.1 17.5.9 7.7 2 17.1 2.5 21 .5 3.8 1.2 9.7 1.6 13 .3 3.3.8 7.5 1 9.3.8 6.6 1.3 10.9 2 17.2.3 3.6.8 7.3 1 8.4.2 1 .6 5.1 1 9 .3 3.9.8 7.3 1 7.6.1.3.6 4.2.9 8.5.4 4.4.9 8.9 1.1 10 .2 1.1.6 4.2.9 7 1 9.7 1.6 15 2 17.5.2 1.4.6 5 1 8 .3 3 .8 7.1 1 9 .4 3.2 1.1 9.4 2 17.5.2 1.6.9 7.5 1.6 13 .6 5.5 1.3 11.1 1.4 12.5.4 3.7 1.5 13 2 17 .3 1.9.7 6.1 1.1 9.3.3 3.2.7 6.7.9 7.7.2 1 .7 5 1.1 8.7 2.6 25.5 4 30.8 10.3 39.3 6.1 8.2 15 13.8 26.5 16.7 3.5.9 238.7.9 244.5 0 11.2-1.6 23.2-9.5 29.5-19.2 2.2-3.6 6.2-13.3 6.4-16 0-.6.3-3 .6-5.5s.8-7 1.1-10c.4-3 .8-6.6 1-8 .5-3.1 1.2-9.6 2-17.5.4-3.3.8-7.1 1-8.5.8-5.4 1.6-12.7 1.9-17.2.2-2.6.7-5.9 1-7.5.3-1.5.8-5.5 1.2-8.8.3-3.3.7-7.1.9-8.5.1-1.4.6-5.3.9-8.7.4-3.4.8-7 1.1-8 .2-1.1.6-5.2 1-9.2.3-4 .8-8 1-8.9.3-1.9 1.5-11.8 2.1-17.2.2-1.9.6-5.5.9-8 1.3-11.3 1.6-13.7 1.9-17 .8-7.7 1.7-15.7 2.3-19.5.3-2.2.7-5.4.8-7 .3-3.1 1.3-12 2-16.5.2-1.4.6-5.4 1-9 .4-3.6.8-7.6 1-9 .3-1.4.7-5 1-8 .5-5.1.8-7.6 2-17 .7-5.3 1.7-14.1 2-18 .2-1.9.7-5.8 1-8.5.4-2.8.8-6.6 1-8.5.2-1.9.6-5.3.9-7.5.3-2.2.8-6 1.1-8.5.4-5.2 1.3-12.9 2-18 1.2-9 1.8-14.5 2.9-24.5.9-8.7 1.9-16.2 2.2-18 .3-1.1.7-4.5.9-7.5.3-3 .7-7.4 1-9.8.3-2.3.7-6.1 1-8.3.2-2.3.7-5.8.9-7.8.3-2 .8-6.5 1.2-10.1.3-3.6.7-7.2.9-8 .1-.8.6-4.9 1-9s.9-8.4 1.1-9.5c.3-1.1.7-4.3.9-7 .3-2.8.7-6.6 1-8.5.2-1.9.7-6.4 1.1-10 .4-3.6.8-7.2.9-8 .2-.8.4-2.1.4-2.8.1-1.2.8-1.3 14.1-1.2 3 0 6.1.1 6.8.1 1.8-.1 5.9 0 8 0 17.7.5 32-6.2 41.2-19.5 7.4-10.9 7.5-12 7.4-79.4l-.1-56.2 3.1-.1c4.4-.2 8.7-.7 11.6-1.5 1.4-.3 3.5-.8 4.6-1 3.9-.7 13.9-5.6 19.9-9.7 16.8-11.4 27.5-31.1 27.7-51 .1-7-.9-17.4-1.9-18.9-.2-.5-.6-1.6-.8-2.5-1.5-6.5-5.2-13.3-11.8-21.6-2.9-3.8-4.5-6.7-4.2-7.7 1.2-2.9 6.6-19.5 7-21 .1-.8.9-3.5 1.6-6 .7-2.5 1.4-5 1.5-5.5.2-.6.6-2.4.9-4 .3-1.7.9-3.9 1.2-5 .3-1.1.7-2.9.9-4 .4-2.7 2.3-13.4 2.9-16.5 1.2-6 2-20.7 2-36-.1-21.5-1.1-31.4-5.1-48.7-.8-3.7-1.8-8.1-2.1-9.6-.3-1.6-1.9-6.5-3.5-11s-3-8.7-3.1-9.4c-.2-.7-.6-1.6-1-1.9-.4-.4-.7-1.4-.7-2.2 0-4.3-19.1-39.8-28.9-53.7-16.5-23.2-38.5-47.6-60.5-67-3.8-3.3-7.8-6.9-9-8-1.1-1.1-5.9-5.2-10.6-9-4.7-3.8-9.1-7.5-9.8-8.2-.7-.7-1.6-1.3-2-1.3-.4 0-2.1-1.4-3.9-3-1.8-1.7-3.5-3-3.8-3-.3 0-1.5-.9-2.7-2-1.2-1.1-4-3.2-6.2-4.7-2.3-1.6-4.7-3.3-5.3-4-.7-.6-7.4-5.5-15-10.9s-14.4-10.4-15.1-11.1c-.7-.7-1.7-1.3-2.1-1.3-.4 0-2.1-1.1-3.7-2.5s-3.2-2.5-3.6-2.5c-.4 0-1.3-.6-2-1.3-1.2-1.1-4.8-3.8-18.3-13.7-3.3-2.4-6.4-4.8-7-5.2-.5-.4-7.5-5.6-15.5-11.6-20.9-15.5-36.1-31.2-49.9-51.5-4.6-6.8-13.5-24-16.6-32.2-1.5-3.9-3-7.7-3.5-8.7-1.4-2.6-7.8-29.8-8.5-35.8-.3-3-.8-7.6-1.1-10.1-2-17.7.5-44 6.3-65.9 2.7-10.2-3.3-21.4-13.2-24.6-4-1.4-11.5-1.6-14-.4zm-20.9 73.7c0 18.2.7 29.1 2.8 41.3 1.1 6.7 1.7 9.5 2.8 13.5.5 2.2 1.2 4.9 1.4 6 .7 3.9 5.3 18.4 6.5 20.7.7 1.3 1.2 2.4 1.1 2.5-.1.3 0 .8 1.7 5.3.5 1.4.9 2.9.9 3.4s.5 1.2 1.1 1.6c.6.3 1.3 1.6 1.5 2.7.7 3.2 10.3 20.8 16.9 30.8 13.4 20.3 29.9 38.2 50.4 55 4.9 4 26.6 20.1 29.8 22.1 1.7 1 3.2 2.1 3.5 2.5.3.3 4.1 3 8.5 5.9 4.4 2.9 8.2 5.7 8.3 6.2.2.4.8.8 1.2.8.7 0 12.8 8.2 18 12.3.9.7 3.8 2.8 6.5 4.7 2.8 1.9 5.5 3.8 6 4.3.6.4 3.5 2.5 6.5 4.7s6 4.3 6.5 4.8c.6.4 2.6 1.9 4.5 3.2 1.9 1.4 3.9 3.1 4.3 3.7.4.7 1.5 1.3 2.2 1.3.8 0 1.5.4 1.5.9s1.5 1.9 3.3 3c1.7 1.1 4.3 3 5.7 4.3 1.4 1.3 4.3 3.6 6.5 5.3 2.2 1.6 4.9 3.9 6.1 5 1.1 1.1 4.3 3.8 6.9 6 13.1 10.8 35.2 33 45 45.3 2.8 3.4 5.3 6.2 5.8 6.2.4 0 .7.6.7 1.4 0 .8.4 1.6.9 1.8.9.3 14.5 19.9 18.5 26.8 12.1 20.6 21.9 47.8 25 69.3.4 2.7.9 5.8 1.1 6.9 1 4.9 1.6 16.3 1.5 27.3 0 13.1-.5 18.6-2.6 32-.3 1.6-.7 4.1-.9 5.5-.2 1.4-.9 4.5-1.5 7-.7 2.5-1.3 4.9-1.4 5.5-1.2 4.9-3.2 11.3-5.8 18.2-3.3 8.8-4.1 9.5-10.4 8.2-1.8-.3-3.8-.3-4.5.1-.7.5-2.3.4-3.5 0-1.3-.5-2.6-.6-2.8-.1-.3.4-2.5.5-4.8.2-2.4-.4-5.6-.4-7.3-.1-1.6.4-3.9.3-5.1-.1-1.1-.4-2.7-.3-3.4.1-.8.5-2.1.5-3 0-.9-.5-2.2-.5-3 0-.8.5-1.7.7-2 .5-.8-.5-6.3-.6-11-.3-1.9.2-4.5 0-5.7-.4-1.2-.4-2.4-.4-2.7 0-.2.4-4.5.5-9.5.2s-9.1-.3-9.1.1c0 .3-2.4.2-5.3-.1-2.9-.3-6.7-.3-8.5.1-1.8.4-3.2.4-3.2 0 0-.3-4.4-.6-9.8-.7-10.5-.1-35.3-1.2-44.2-1.9-6.7-.6-14.8-1.3-21.5-2-2.7-.3-7.2-.7-10-1-5.1-.5-9.5-1-17.5-2.2-2.5-.4-5.6-.7-7-.9-2.8-.2-9.1-1.1-13-1.8-1.4-.3-4.3-.8-6.5-1.1-6.4-1.1-7.9-1.4-10-1.8-1.1-.3-4.2-.8-6.9-1.1-2.7-.4-5.3-.9-5.6-1.1-.4-.2-2.1-.7-3.8-1-1.8-.3-4.6-.7-6.4-1-1.7-.3-3.4-.8-3.8-1-.4-.2-2.2-.7-4.1-1-1.9-.3-4.2-.8-5.1-1.1-.9-.3-2.5-.7-3.5-.9-5.9-1.2-29-7.2-31.3-8.2-.8-.3-2.2-.7-3.1-.9-2.1-.4-19.8-6.2-22.4-7.4-3-1.3-5.9-2.3-7.3-2.6-.8-.1-2.1-.6-3-1-.9-.4-1.9-.8-2.2-.8-.3-.1-2.4-.9-4.5-1.8-7.3-3.1-12-5.1-12.5-5.3-7.4-2-46.6-23.3-55.7-30.1-1.7-1.3-3.4-2.4-3.7-2.4-.3 0-1.7-1.1-3.2-2.5-1.5-1.4-3.3-2.5-4-2.5-.7 0-1.4-.4-1.6-.8-.1-.5-4.3-4.3-9.3-8.4-9.2-7.7-21.3-19.9-27.5-27.7-1.9-2.4-3.9-4.8-4.5-5.5-3.6-4.1-11.9-17.8-16.4-27.1-2.9-6.1-5.7-11.7-6.2-12.6-.8-1.6-2.7-8.5-3-10.4 0-.6-.5-1.5-.9-2-.9-1.1-4.8-18.5-4.9-21.5 0-.8-.3-4-.7-7-1.6-11.9-.2-38.8 2.5-47.8.1-.1.1-.4.1-.7.1-.9 3.1-11 3.7-12.5.3-.8.7-2.2.9-3 1.1-5.6 11.4-26.2 18.1-36.2 7.5-11.2 22-27.8 24.3-27.8.4 0 1.3 2.1 2 4.7 2 7.2 9.6 25.1 13.5 31.6 1.9 3.2 3.5 6.1 3.5 6.4 0 1.4 12.2 18 18.5 25.2 9.8 11.2 25.3 25.4 36.5 33.6 3 2.2 6.1 4.5 6.8 5.2.6.6 2.1 1.5 3.2 1.8 1.1.3 2 1.1 2 1.6s.7.9 1.5.9 1.5.4 1.5.8c0 .5 1.2 1.5 2.8 2.2 1.5.8 3.8 2.2 5.2 3.1 10.4 6.9 42.1 23.1 61.5 31.4 16.1 6.9 57.5 23.4 60 23.9s13.3 4.8 16 6.3c4.1 2.4 13.9 2.3 18.7 0 3.8-1.8 9.8-8.4 10.6-11.5.2-.9.6-3.8.9-6.3.9-8.8-5.7-18-15-20.9-4.3-1.4-23.6-8.5-27.2-10-1.1-.5-5.8-2.3-10.5-4-4.7-1.8-8.9-3.5-9.5-3.8-.5-.4-1.4-.7-2-.8-1.4-.3-32.4-13.3-34.9-14.7-1.2-.6-2.3-1.2-2.6-1.2-.3 0-2.6-1.1-5.3-2.2-2.6-1.2-5-2.2-5.4-2.2-.3.1-.9-.3-1.2-.8-.3-.4-4.2-2.6-8.6-4.7-8.8-4.3-32.1-18.1-34.3-20.2-.7-.8-1.7-1.4-2.2-1.4-.5 0-1.5-.6-2.2-1.3-.7-.7-2.9-2.4-4.8-3.7-1.9-1.3-3.7-2.7-4-3-.3-.3-3.4-3-7-6-9.2-7.7-17.3-16.3-23.9-25-3.1-4.1-6-7.8-6.6-8.2-.5-.4-.7-.8-.3-.8.4 0-.3-1.6-1.7-3.5-2.6-3.9-10.4-19.7-11-22.3-.3-1-1.4-4.4-2.5-7.7-1.2-3.3-2.2-7.1-2.4-8.5-.1-1.4-.4-3-.8-3.5-.5-.9-.9-3.1-2.5-15-.9-6.5-.9-32.7 0-38.5.4-2.5 1-6.3 1.4-8.5.3-2.2.7-4.9.8-6 .5-3.8 5.6-21 8.2-27.5 9.1-23.3 21.9-43.1 38.5-60.1 7.5-7.6 26.5-23.5 35.8-29.9 1.9-1.3 3.7-2.7 4-3 .3-.3 2.8-2 5.5-3.8 6.7-4.3 7.4-4.8 11.8-7.7 2-1.3 3.7-2.2 3.7-1.9 0 .3 1.2-.4 2.8-1.5 1.5-1.1 3-2.1 3.3-2.1.3 0 .5 8 .5 17.7zM479 464.2c2.3 6 5.9 14 8.1 17.9 2.1 4 3.9 7.4 3.9 7.6 0 .2 2.3 3.8 5 8 2.8 4.2 5 7.9 5 8.4 0 .4.3.9.8 1.1.4.1 2.7 2.9 5.1 6.2 2.4 3.2 5.1 6.6 6 7.5 1 1 2.4 2.7 3.3 4 3.4 4.8 20 21 31.4 30.7 10.8 9.2 39.9 29.4 42.2 29.4.6 0 1.2.3 1.4.7 1.1 2.5 40.7 21.7 60.3 29.3 8.8 3.4 16.9 6.6 18 7 1.1.5 3.8 1.4 6 2 2.2.6 4.9 1.5 6 2 5.5 2.2 38.1 11.2 43.7 12 .4.1 2.2.6 4 1.1 1.8.5 4.4 1.2 5.8 1.4 1.4.3 5.7 1.2 9.5 2 3.9.8 8.6 1.7 10.5 2.1 1.9.3 3.8.8 4.1.9.3.2 2.8.7 5.5 1 2.7.4 5.8.9 6.8 1.2 1.1.3 3.6.7 5.5.9 2 .2 4.7.6 6.1.9 3.7.7 14.6 2.3 21.5 3 4.2.5 12.3 1.5 16.5 2.1 3.1.4 7.4.8 20 1.9 31.3 2.6 63 3.6 127.5 3.8 44.4.2 49.3.4 52.2 1.9 6.2 3.4 11.2 9.5 12.8 15.3.9 3.5 1 9.8.3 11.1-.3.5-.8 2.1-1.2 3.6-1.2 5.1-10.1 13.1-16 14.4-1.1.3-19.4.5-40.6.6-21.2.1-40 .5-41.9 1-14.5 4.1-19.3 22.2-8.9 33.9 4.7 5.3 8.2 6.3 22.8 6.5 7.4.1 14.6.2 16 .3l2.5.1-.1 56c0 30.8-.3 56.2-.7 56.6-.7.8-494.1.9-495.4.1-.6-.4-1-109.9-.4-112.7.1-.3 86.9-.5 192.9-.5 212.3 0 195.1.5 202-6.2 6.6-6.4 8.1-15.7 3.7-23.9-2.7-5.1-4.8-7-10.5-9.5-3.3-1.5-22.3-1.7-220.6-1.7-215.6 0-217.1 0-221.6-2-12.5-5.5-17.9-19.6-12-31.4 3.1-6.2 5-8.1 11.5-11.2 4.6-2.3 5.7-2.4 30.3-2.4 27.6-.1 30.3-.4 34.9-3.5 6.1-4.2 8.7-8.7 9.6-16.2.8-7.2-4.2-15.7-11.5-19.4-4.6-2.2-5.9-2.4-25.1-2.5-11.2 0-20.6-.3-20.8-.6-.3-.3-.8-2.4-1.2-4.7-.3-2.3-.8-5.7-1.2-7.5-.8-4.6-1.2-45.8-.4-45.8.3 0 .6-1 .7-2.3 0-2.6 1.2-11.1 1.9-14.7.3-1.4.8-4.1 1.1-6 .3-1.9 1-4.2 1.4-5 .4-.8 1-2.9 1.3-4.5.3-1.7 1-4.2 1.6-5.8.6-1.5 1.3-3.8 1.5-5 .8-3.7 5-14.2 5.8-14.5.4-.2.8-.9.8-1.6 0-1.3 2.2-6.6 4-9.6.5-.8 1.9-3.5 3.1-6 4.2-8.3 20.6-32.7 21.5-31.7.1.1 2.1 5 4.4 10.9zm117 440.3c5.2 0 10.3-.3 11.2-.7.9-.5 1.9-.5 2.1-.1.6 1 21 .9 22.5-.1.6-.3 1.3-.3 1.5.1.6 1 21 .9 22.5-.1.6-.3 1.3-.3 1.5.1.3.5 6.7.7 14.2.7l13.7-.2-26.9 26.4c-14.7 14.5-27.1 26.4-27.5 26.4-.5 0-.8.6-.9 1.2 0 .7-1.4 2.4-3 3.7l-3.1 2.4-11.6-11.6c-6.5-6.4-20.2-19.9-30.5-30.1l-18.8-18.5 9.6.2c5.3.1 10.1-.1 10.8-.5.6-.4 1.6-.4 2.1 0 .6.3 5.3.6 10.6.7zm249.8 26.9c-15.2 14.9-29 28.4-30.7 30l-3 2.9-19.3-19.1c-10.6-10.5-24.1-23.8-30-29.6-6-5.7-10.8-10.6-10.8-10.8 0-.3 27.3-.5 60.7-.5h60.6l-27.5 27.1zm-101.9 24c13.5 13.5 27.8 27.6 31.8 31.4l7.1 7-31.4 31.1c-17.3 17.1-32 31.3-32.5 31.7-.6.3-13.6-11.9-29-27.2-15.4-15.4-28.4-28.1-28.9-28.2-.6-.2-.8-.8-.4-1.3.3-.5-.1-.9-.8-1-.7 0-2.3-1.3-3.5-2.8l-2.3-2.9 11.8-11.5c38.9-38.3 51.7-50.7 52.5-50.7.5 0 12 11 25.6 24.4zm138.7 1.3c-.3 1.6-.8 5.3-1.1 8.3-.6 6-1.3 11.5-2.1 17.1-.2 2-.7 5.6-.9 8-.8 8.1-1.6 14.4-2 15.9-.5 2.1-1.8 15.1-1.7 17.2 0 1-.2 1.8-.6 1.8-.4 0-7.8-7.1-16.5-15.8L842 993.4l20-19.7c11-10.8 20.3-19.7 20.6-19.7.3 0 .3 1.2 0 2.7zM855 1064.4c8.1 8 13.5 14.1 13.4 15.2 0 2-1.3 12.5-2 15.9-.2 1.1-12.3 13.9-27 28.3l-26.6 26.4-7.8-7.9c-4.3-4.3-18.1-18-30.6-30.4-12.6-12.4-23.5-23.3-24.3-24.2-1.2-1.5.7-3.8 18.7-21.5 11.1-10.8 25.5-25 32.1-31.6l12-11.8 14.3 14.1c7.9 7.8 20.4 20.2 27.8 27.5zm-204.3-15.2c14 13.9 28.2 27.9 31.4 31.1 3.2 3.2 5.9 6.1 5.9 6.5 0 .8-63 63.2-63.9 63.2-.3 0-2.5-1.9-4.7-4.3-2.3-2.3-14.1-14-26.2-26-12.2-12-22.3-22.6-22.6-23.5-.3-1-.8-4.4-1.1-7.7-.4-3.3-.8-6.9-.9-8-.2-1.4 7.5-9.7 27.3-29.2 15.2-15 28-27.3 28.4-27.3.5 0 12.3 11.4 26.4 25.2zm95.2 94.2c14.6 14.6 28.9 28.7 31.7 31.5l5.2 5-32 31.6c-17.6 17.4-32.4 31.5-32.9 31.3-.4-.2-15-14.4-32.4-31.6l-31.7-31.4 31.8-31.4c17.6-17.2 32.3-31.4 32.8-31.4.4 0 12.8 11.9 27.5 26.4zm-156.5 31.5 5 5.1-6 6c-3.2 3.3-6.1 6-6.4 6-.3 0-.7-1.5-.9-3.3-.1-1.7-.4-4.6-.6-6.2-.3-2.4-1.4-12-1.7-14.4-.3-3.5.3-3.8 3-1.1 1.5 1.5 4.9 5.1 7.6 7.9zm268.1-3.7c-.4 3.5-.9 7.4-1 8.8-.4 4.1-1.6 11.5-1.9 11.8-.5.4-11.6-11.1-11.6-12 0-1.1 13.2-14.6 14.3-14.7.5-.1.5 2.7.2 6.1zM696 1282.1c0 1.4-5.3 1.6-51.8 1.7-38.4 0-51.9-.3-51.9-1.1-.1-.7-.4-2.8-.7-4.7-.3-1.9-.8-6.2-1.2-9.5-.3-3.3-.7-7.4-.9-9-.2-1.7-.7-5.6-1-8.7l-.6-5.8 18.2-18 18.3-17.9 35.8 35.7c19.7 19.7 35.8 36.5 35.8 37.3zm135-54.6 18.1 17.9-.7 4.6c-.3 2.5-.8 5.8-.9 7.5-.2 1.6-.6 5.2-.9 8-.3 2.7-.8 7.5-1.2 10.5-.3 3-1 5.9-1.4 6.4-.7.7-92.4 1.2-104.9.7-.8-.1 15-16.3 35-36s36.9-36.3 37.4-36.9c.6-.5 1.1-.9 1.2-.8.1 0 8.3 8.2 18.3 18.1zm8.6 98.3c-.2.4-.7 3.6-1.1 7.2-.7 7.3-.9 8.8-2 18-.4 3.6-1 8.1-1.2 10-.3 3.2-.7 6.4-1.1 9.7-.1.6-1 1.2-1.9 1.2-7.7 0-13.5 0-14.8.1h-3c-4.9.2-15.5.1-17.7-.1H793c-1.4.1-3.2.1-4 0h-4c-1.4.1-3.2.1-4 0h-4c-1.4.1-4.9.2-7.7.1-2.9 0-5.9.1-6.5.1-.7.1-2.9.1-4.8 0s-4.2-.1-5 0c-.8.1-3.1.1-5 0s-4.2-.1-5 0c-.8.1-3.1 0-5-.1-3.2-.1-13-.2-16.5 0h-3c-.8.1-4 .1-7 .1s-6.2 0-7-.1h-3.2c-1 0-3.4 0-5.3-.1s-4.2-.1-5 0c-.8.1-3.1.1-5 0s-4.1-.1-4.7 0c-3.1.3-14.2.3-19.3.1-1.9-.1-4.1-.2-4.7-.1-3.1.3-14.2.3-19.3.1-1.9-.1-4.1-.2-4.7-.1-.7.1-1.9.1-2.5.2-.7.1-2.9 0-4.8-.1-1.9 0-6.1-.1-9.2 0-3.2.1-6.1-.1-6.6-.4-.4-.2-1.4-.1-2.2.4-2.2 1.4-6-1-6.1-3.9 0-1.4-.2-4-.4-5.6-.2-1.7-.6-5-.9-7.5-.3-2.5-.8-6.3-1.1-8.5-.3-2.2-.7-6-1-8.5-.2-2.5-.4-4.5-.5-4.5-.1 0-.3-1.9-.6-4.3l-.4-4.2h121.6c66.8 0 121.3.3 121 .8z"/></svg>