<?xml version="1.0" encoding="UTF-8" standalone="no"?>
<svg
   width="22"
   height="14"
   fill="none"
   version="1.1"
   id="svg148"
   sodipodi:docname="burger.svg"
   inkscape:version="1.2.1 (9c6d41e410, 2022-07-14)"
   xmlns:inkscape="http://www.inkscape.org/namespaces/inkscape"
   xmlns:sodipodi="http://sodipodi.sourceforge.net/DTD/sodipodi-0.dtd"
   xmlns="http://www.w3.org/2000/svg"
   xmlns:svg="http://www.w3.org/2000/svg">
  <defs
     id="defs152" />
  <sodipodi:namedview
     id="namedview150"
     pagecolor="#ffffff"
     bordercolor="#000000"
     borderopacity="0.25"
     inkscape:showpageshadow="2"
     inkscape:pageopacity="0.0"
     inkscape:pagecheckerboard="0"
     inkscape:deskcolor="#d1d1d1"
     showgrid="false"
     inkscape:zoom="58.142857"
     inkscape:cx="8.9090909"
     inkscape:cy="7.0085995"
     inkscape:window-width="1920"
     inkscape:window-height="1001"
     inkscape:window-x="-9"
     inkscape:window-y="-9"
     inkscape:window-maximized="1"
     inkscape:current-layer="svg148" />
  <path
     style="color:#000000;fill:#ffffff;stroke-linecap:round;-inkscape-stroke:none"
     d="M 1,0 A 1,1 0 0 0 0,1 1,1 0 0 0 1,2 H 21 A 1,1 0 0 0 22,1 1,1 0 0 0 21,0 Z M 1,6 A 1,1 0 0 0 0,7 1,1 0 0 0 1,8 H 21 A 1,1 0 0 0 22,7 1,1 0 0 0 21,6 Z m 0,6 a 1,1 0 0 0 -1,1 1,1 0 0 0 1,1 h 20 a 1,1 0 0 0 1,-1 1,1 0 0 0 -1,-1 z"
     id="path146" />
</svg>
