<svg width="24" height="45" viewBox="0 0 24 45" fill="none" xmlns="http://www.w3.org/2000/svg">
<path d="M22.4865 19.9247C24.7853 13.7591 20.0248 10.3841 16.8692 8.16595C16.2659 7.71277 15.6625 7.28941 15.1738 6.90183C14.3004 6.17346 13.6569 5.21252 13.32 4.13327C12.9831 3.05402 12.9669 1.90186 13.2732 0.813754C13.3047 0.699909 13.3039 0.579702 13.271 0.466265C13.238 0.352829 13.1742 0.250524 13.0864 0.170525C12.9986 0.0905255 12.8902 0.0359104 12.7731 0.0126413C12.6561 -0.0106278 12.5348 -0.00165465 12.4225 0.0385814C11.3598 0.454105 10.3718 1.03597 9.49622 1.76185C8.65499 2.40281 7.97347 3.22564 7.50388 4.16725C7.03429 5.10886 6.78911 6.14424 6.78716 7.19401C6.19216 7.65757 5.66612 8.20154 5.22446 8.80994C4.41311 9.90451 4.00633 11.2411 4.07205 12.5963C3.1056 13.4736 2.38581 14.5836 1.98292 15.8178C1.58002 17.052 1.50778 18.3684 1.77327 19.6385C1.38879 19.8681 1.09119 20.216 0.926161 20.6289C0.761136 21.0418 0.737804 21.4969 0.859764 21.9241C0.981724 22.3514 1.24223 22.7273 1.60127 22.9941C1.96031 23.2609 2.39804 23.4039 2.84724 23.401H2.88948V26.9072C2.88948 27.263 3.0325 27.6043 3.28709 27.8559C3.54168 28.1075 3.88699 28.2488 4.24703 28.2488H5.3029L7.02247 42.9771C7.05822 43.305 7.21543 43.6082 7.46383 43.8283C7.71224 44.0485 8.03427 44.1701 8.36794 44.1697H15.5238C15.8577 44.1689 16.1798 44.0471 16.4289 43.8273C16.678 43.6075 16.8368 43.3049 16.8753 42.9771L18.5948 28.2488H19.6507C20.0108 28.2488 20.356 28.1075 20.6106 27.8559C20.8652 27.6043 21.0083 27.263 21.0083 26.9072V23.401H21.0505C21.5962 23.401 22.1195 23.1868 22.5053 22.8055C22.8912 22.4242 23.1079 21.907 23.1079 21.3677C23.1107 21.0986 23.0587 20.8316 22.955 20.5827C22.8514 20.3338 22.6982 20.108 22.5046 19.9187L22.4865 19.9247ZM6.99833 8.73838C7.86717 11.9643 11.2218 13.2344 14.2808 14.3673C14.3631 14.4173 14.4555 14.4489 14.5514 14.4596C14.6474 14.4704 14.7445 14.4601 14.836 14.4296C14.9275 14.399 15.0111 14.349 15.0808 14.2829C15.1505 14.2168 15.2046 14.1364 15.2393 14.0473C15.274 13.9583 15.2884 13.8627 15.2816 13.7675C15.2747 13.6723 15.2467 13.5798 15.1995 13.4965C15.1524 13.4132 15.0872 13.3412 15.0088 13.2856C14.9303 13.23 14.8404 13.1921 14.7454 13.1747C11.4511 11.9404 8.34381 10.7896 8.10851 7.49215C8.05336 6.58572 8.22553 5.67986 8.60971 4.85498C8.99388 4.0301 9.57818 3.31172 10.3108 2.76361C10.7697 2.38622 11.2625 2.05091 11.7829 1.76185C11.7494 2.17461 11.7494 2.58936 11.7829 3.00212C11.8528 3.94703 12.1142 4.86841 12.5516 5.71147C12.989 6.55452 13.5935 7.30203 14.3291 7.90955C14.8299 8.33291 15.4513 8.7682 16.1392 9.2333C17.726 10.3603 19.53 11.6184 20.6764 13.3238C21.288 14.1984 21.6686 15.2103 21.7835 16.2674C21.8983 17.3244 21.7438 18.3931 21.3341 19.3761H21.0807H18.6672C13.1707 19.3761 6.85353 17.8735 5.60458 13.6637C5.35682 12.7976 5.35884 11.8804 5.61044 11.0154C5.86203 10.1504 6.35319 9.37205 7.02849 8.7682L6.99833 8.73838ZM11.9458 29.0657L13.9611 31.0573L11.9458 33.0489L9.93063 31.0454L11.9458 29.0657ZM16.5676 34.2952L14.9023 35.9409L12.8871 33.9493L14.9023 31.9637L16.652 33.687L16.5676 34.2952ZM11.9458 38.8627L9.93063 36.8711L11.9458 34.8795L13.9611 36.8711L11.9458 38.8627ZM11.0227 33.9613L9.0075 35.9528L7.33017 34.2952L7.25777 33.6989L9.0075 31.9756L11.0227 33.9613ZM8.07835 36.8711L7.67409 37.2706L7.57151 36.3643L8.07835 36.8711ZM7.86717 38.9104L9.0075 37.7834L11.2218 39.9897C11.2332 40.0342 11.2473 40.0781 11.2641 40.1209H8.00593L7.86717 38.9104ZM14.8902 37.7834L16.0306 38.9104L15.8918 40.103H12.5432L14.8902 37.7834ZM16.2176 37.2706L15.8134 36.8711L16.3262 36.3643L16.2176 37.2706ZM16.821 32.0591L15.8134 31.0454L17.0925 29.7813L16.821 32.0591ZM14.8842 30.1391L12.9716 28.2548H16.7968L14.8842 30.1391ZM9.00148 30.1391L7.08883 28.2548H10.9141L9.00148 30.1391ZM15.5177 42.8757H8.36794C8.35719 42.8745 8.34718 42.8697 8.33951 42.8621C8.33185 42.8545 8.32698 42.8446 8.32571 42.834L8.15677 41.4029H15.7349L15.572 42.834C15.5705 42.8456 15.5648 42.8562 15.5559 42.8639C15.547 42.8716 15.5356 42.8758 15.5238 42.8757H15.5177ZM21.0505 22.1011H18.9508C18.8596 22.0925 18.7675 22.1028 18.6805 22.1313C18.5935 22.1599 18.5135 22.2061 18.4457 22.267C18.3778 22.328 18.3236 22.4022 18.2865 22.4851C18.2494 22.5679 18.2302 22.6575 18.2302 22.7481C18.2302 22.8387 18.2494 22.9283 18.2865 23.0111C18.3236 23.094 18.3778 23.1683 18.4457 23.2292C18.5135 23.2901 18.5935 23.3363 18.6805 23.3649C18.7675 23.3935 18.8596 23.4037 18.9508 23.3951H19.699V26.9012C19.6975 26.9128 19.6918 26.9235 19.6829 26.9312C19.674 26.9389 19.6625 26.9431 19.6507 26.943H4.22289C4.21107 26.9431 4.19962 26.9389 4.19072 26.9312C4.18183 26.9235 4.17611 26.9128 4.17463 26.9012V23.3951H16.1271C16.2899 23.3796 16.441 23.3048 16.551 23.1852C16.6609 23.0655 16.7219 22.9097 16.7219 22.7481C16.7219 22.5865 16.6609 22.4307 16.551 22.3111C16.441 22.1914 16.2899 22.1166 16.1271 22.1011H2.85328C2.74979 22.1104 2.64549 22.0982 2.54704 22.0653C2.44858 22.0325 2.35811 21.9798 2.28141 21.9105C2.20471 21.8412 2.14346 21.7569 2.10155 21.663C2.05964 21.569 2.03799 21.4674 2.03799 21.3647C2.03799 21.262 2.05964 21.1605 2.10155 21.0665C2.14346 20.9725 2.20471 20.8882 2.28141 20.8189C2.35811 20.7497 2.44858 20.6969 2.54704 20.6641C2.64549 20.6313 2.74979 20.6191 2.85328 20.6283H4.22289C4.38567 20.6129 4.53678 20.538 4.64674 20.4184C4.7567 20.2988 4.81763 20.143 4.81763 19.9813C4.81763 19.8197 4.7567 19.6639 4.64674 19.5443C4.53678 19.4247 4.38567 19.3498 4.22289 19.3344H3.01618C2.84335 18.4271 2.87143 17.4936 3.09849 16.5981C3.32554 15.7025 3.74619 14.8662 4.33149 14.1467C4.75384 15.4466 5.83988 17.2235 8.55498 18.6367C11.1072 19.9545 14.486 20.6283 18.5948 20.6283H21.0083C21.1117 20.6191 21.216 20.6313 21.3145 20.6641C21.413 20.6969 21.5034 20.7497 21.5801 20.8189C21.6568 20.8882 21.7181 20.9725 21.76 21.0665C21.8019 21.1605 21.8235 21.262 21.8235 21.3647C21.8235 21.4674 21.8019 21.569 21.76 21.663C21.7181 21.7569 21.6568 21.8412 21.5801 21.9105C21.5034 21.9798 21.413 22.0325 21.3145 22.0653C21.216 22.0982 21.1117 22.1104 21.0083 22.1011H21.0505Z" fill="#F8D24E"/>
</svg>
