<?xml version="1.0" standalone="no"?>
<!DOCTYPE svg PUBLIC "-//W3C//DTD SVG 20010904//EN"
 "http://www.w3.org/TR/2001/REC-SVG-20010904/DTD/svg10.dtd">
<svg version="1.0" xmlns="http://www.w3.org/2000/svg"
 width="1440.000000pt" height="1440.000000pt" viewBox="0 0 1440.000000 1440.000000"
 preserveAspectRatio="xMidYMid meet">
<metadata>
Created by potrace 1.14, written by Peter Selinger 2001-2017
</metadata>
<g transform="translate(0.000000,1440.000000) scale(0.100000,-0.100000)"
fill="#000000" stroke="none">
<path d="M7335 14390 c-37 -17 -140 -63 -145 -65 -26 -7 -56 -19 -60 -24 -3
-3 -60 -33 -127 -66 -68 -33 -123 -63 -123 -67 0 -5 -6 -8 -12 -8 -11 -1 -110
-61 -143 -87 -5 -4 -22 -14 -36 -22 -25 -12 -288 -206 -299 -220 -3 -3 -27
-24 -55 -46 -75 -59 -240 -222 -293 -290 -25 -33 -55 -69 -64 -80 -10 -10 -37
-49 -61 -85 -23 -36 -45 -66 -49 -68 -5 -2 -8 -8 -8 -13 0 -5 -11 -26 -23 -47
-43 -67 -97 -172 -97 -187 0 -8 -4 -15 -10 -15 -5 0 -10 -8 -10 -18 0 -10 -6
-26 -14 -37 -7 -11 -19 -38 -26 -60 -7 -22 -17 -46 -23 -52 -5 -7 -7 -13 -3
-13 3 0 -1 -16 -9 -36 -15 -36 -41 -125 -51 -174 -3 -14 -9 -41 -14 -60 -5
-19 -11 -53 -15 -75 -3 -22 -10 -69 -16 -104 -5 -35 -12 -109 -13 -163 -3 -77
-8 -105 -22 -124 -10 -13 -22 -24 -25 -24 -19 0 -273 -247 -344 -334 -66 -81
-160 -208 -185 -251 -13 -22 -27 -42 -30 -45 -16 -12 -141 -284 -169 -365 -32
-96 -59 -198 -67 -255 -3 -19 -8 -48 -11 -65 -11 -48 -12 -72 -18 -228 l-5
-148 -73 -73 c-177 -179 -323 -373 -418 -556 -18 -36 -37 -66 -41 -68 -4 -2
-8 -8 -8 -13 0 -6 -11 -35 -25 -65 -14 -30 -25 -59 -25 -64 0 -6 -4 -10 -10
-10 -5 0 -9 -3 -8 -7 2 -11 -13 -66 -22 -78 -6 -8 -31 -75 -35 -95 -5 -22 -27
-98 -32 -110 -9 -20 -24 -86 -38 -160 -3 -14 -9 -47 -14 -75 -42 -220 -44
-544 -5 -760 4 -21 15 -97 16 -105 1 -20 -4 -30 -16 -30 -34 0 -226 -211 -226
-248 0 -5 -9 -27 -20 -50 -11 -22 -22 -51 -24 -64 -3 -13 -5 -23 -7 -23 -5 0
-11 -60 -13 -148 -4 -117 14 -195 71 -306 41 -82 136 -187 213 -238 47 -30
134 -73 160 -78 8 -2 16 -4 18 -5 8 -7 107 -23 149 -25 24 -1 46 -5 50 -9 4
-4 8 -271 9 -594 1 -622 1 -627 49 -723 26 -50 129 -159 151 -159 8 0 14 -4
14 -9 0 -5 8 -11 18 -14 9 -3 37 -13 62 -22 61 -23 264 -36 291 -20 5 4 9 1 9
-5 0 -6 4 -9 9 -6 16 10 152 9 162 -1 6 -6 12 -30 14 -54 6 -57 15 -136 20
-174 2 -16 6 -57 10 -90 3 -33 8 -73 10 -90 2 -16 7 -55 10 -85 3 -30 7 -65
10 -78 2 -13 7 -51 10 -85 3 -34 8 -75 10 -92 2 -16 6 -52 9 -80 3 -27 7 -66
10 -85 3 -19 8 -60 11 -90 3 -30 7 -72 10 -92 11 -83 17 -135 20 -173 1 -22 5
-58 9 -80 7 -45 16 -123 21 -175 2 -19 6 -51 9 -70 5 -36 11 -92 21 -190 4
-30 9 -71 11 -90 3 -19 7 -55 9 -80 2 -25 6 -61 9 -80 3 -19 12 -98 21 -175 9
-77 20 -171 25 -210 5 -38 12 -97 16 -130 3 -33 8 -75 10 -93 8 -66 13 -109
20 -172 3 -36 8 -73 10 -84 2 -10 6 -51 10 -90 3 -39 8 -73 10 -76 1 -3 6 -42
9 -85 4 -44 9 -89 11 -100 2 -11 6 -42 9 -70 10 -97 16 -150 20 -175 2 -14 6
-50 10 -80 3 -30 8 -71 10 -90 4 -32 11 -94 20 -175 2 -16 9 -75 16 -130 6
-55 13 -111 14 -125 4 -37 15 -130 20 -170 3 -19 7 -61 11 -93 3 -32 7 -67 9
-77 2 -10 7 -50 11 -87 26 -255 40 -308 103 -393 61 -82 150 -138 265 -167 35
-9 2387 -9 2445 0 112 16 232 95 295 192 22 36 62 133 64 160 0 6 3 30 6 55 3
25 8 70 11 100 4 30 8 66 10 80 5 31 12 96 20 175 4 33 8 71 10 85 8 54 16
127 19 172 2 26 7 59 10 75 3 15 8 55 12 88 3 33 7 71 9 85 1 14 6 53 9 87 4
34 8 70 11 80 2 11 6 52 10 92 3 40 8 80 10 89 3 19 15 118 21 172 2 19 6 55
9 80 13 113 16 137 19 170 8 77 17 157 23 195 3 22 7 54 8 70 3 31 13 120 20
165 2 14 6 54 10 90 4 36 8 76 10 90 3 14 7 50 10 80 5 51 8 76 20 170 7 53
17 141 20 180 2 19 7 58 10 85 4 28 8 66 10 85 2 19 6 53 9 75 3 22 8 60 11
85 4 52 13 129 20 180 12 90 18 145 29 245 9 87 19 162 22 180 3 11 7 45 9 75
3 30 7 74 10 98 3 23 7 61 10 83 2 23 7 58 9 78 3 20 8 65 12 101 3 36 7 72 9
80 1 8 6 49 10 90 4 41 9 84 11 95 3 11 7 43 9 70 3 28 7 66 10 85 2 19 7 64
11 100 4 36 8 72 9 80 2 8 4 21 4 28 1 12 8 13 141 12 30 0 61 -1 68 -1 18 1
59 0 80 0 177 -5 320 62 412 195 74 109 75 120 74 794 l-1 562 31 1 c44 2 87
7 116 15 14 3 35 8 46 10 39 7 139 56 199 97 168 114 275 311 277 510 1 70 -9
174 -19 189 -2 5 -6 16 -8 25 -15 65 -52 133 -118 216 -29 38 -45 67 -42 77
12 29 66 195 70 210 1 8 9 35 16 60 7 25 14 50 15 55 2 6 6 24 9 40 3 17 9 39
12 50 3 11 7 29 9 40 4 27 23 134 29 165 12 60 20 207 20 360 -1 215 -11 314
-51 487 -8 37 -18 81 -21 96 -3 16 -19 65 -35 110 -16 45 -30 87 -31 94 -2 7
-6 16 -10 19 -4 4 -7 14 -7 22 0 43 -191 398 -289 537 -165 232 -385 476 -605
670 -38 33 -78 69 -90 80 -11 11 -59 52 -106 90 -47 38 -91 75 -98 82 -7 7
-16 13 -20 13 -4 0 -21 14 -39 30 -18 17 -35 30 -38 30 -3 0 -15 9 -27 20 -12
11 -40 32 -62 47 -23 16 -47 33 -53 40 -7 6 -74 55 -150 109 -76 54 -144 104
-151 111 -7 7 -17 13 -21 13 -4 0 -21 11 -37 25 -16 14 -32 25 -36 25 -4 0
-13 6 -20 13 -12 11 -48 38 -183 137 -33 24 -64 48 -70 52 -5 4 -75 56 -155
116 -209 155 -361 312 -499 515 -46 68 -135 240 -166 322 -15 39 -30 77 -35
87 -14 26 -78 298 -85 358 -3 30 -8 76 -11 101 -20 177 5 440 63 659 27 102
-33 214 -132 246 -40 14 -115 16 -140 4z m-209 -737 c0 -182 7 -291 28 -413
11 -67 17 -95 28 -135 5 -22 12 -49 14 -60 7 -39 53 -184 65 -207 7 -13 12
-24 11 -25 -1 -3 0 -8 17 -53 5 -14 9 -29 9 -34 0 -5 5 -12 11 -16 6 -3 13
-16 15 -27 7 -32 103 -208 169 -308 134 -203 299 -382 504 -550 49 -40 266
-201 298 -221 17 -10 32 -21 35 -25 3 -3 41 -30 85 -59 44 -29 82 -57 83 -62
2 -4 8 -8 12 -8 7 0 128 -82 180 -123 9 -7 38 -28 65 -47 28 -19 55 -38 60
-43 6 -4 35 -25 65 -47 30 -22 60 -43 65 -48 6 -4 26 -19 45 -32 19 -14 39
-31 43 -37 4 -7 15 -13 22 -13 8 0 15 -4 15 -9 0 -5 15 -19 33 -30 17 -11 43
-30 57 -43 14 -13 43 -36 65 -53 22 -16 49 -39 61 -50 11 -11 43 -38 69 -60
131 -108 352 -330 450 -453 28 -34 53 -62 58 -62 4 0 7 -6 7 -14 0 -8 4 -16 9
-18 9 -3 145 -199 185 -268 121 -206 219 -478 250 -693 4 -27 9 -58 11 -69 10
-49 16 -163 15 -273 0 -131 -5 -186 -26 -320 -3 -16 -7 -41 -9 -55 -2 -14 -9
-45 -15 -70 -7 -25 -13 -49 -14 -55 -12 -49 -32 -113 -58 -182 -33 -88 -41
-95 -104 -82 -18 3 -38 3 -45 -1 -7 -5 -23 -4 -35 0 -13 5 -26 6 -28 1 -3 -4
-25 -5 -48 -2 -24 4 -56 4 -73 1 -16 -4 -39 -3 -51 1 -11 4 -27 3 -34 -1 -8
-5 -21 -5 -30 0 -9 5 -22 5 -30 0 -8 -5 -17 -7 -20 -5 -8 5 -63 6 -110 3 -19
-2 -45 0 -57 4 -12 4 -24 4 -27 0 -2 -4 -45 -5 -95 -2 -50 3 -91 3 -91 -1 0
-3 -24 -2 -53 1 -29 3 -67 3 -85 -1 -18 -4 -32 -4 -32 0 0 3 -44 6 -98 7 -105
1 -353 12 -442 19 -67 6 -148 13 -215 20 -27 3 -72 7 -100 10 -51 5 -95 10
-175 22 -25 4 -56 7 -70 9 -28 2 -91 11 -130 18 -14 3 -43 8 -65 11 -64 11
-79 14 -100 18 -11 3 -42 8 -69 11 -27 4 -53 9 -56 11 -4 2 -21 7 -38 10 -18
3 -46 7 -64 10 -17 3 -34 8 -38 10 -4 2 -22 7 -41 10 -19 3 -42 8 -51 11 -9 3
-25 7 -35 9 -59 12 -290 72 -313 82 -8 3 -22 7 -31 9 -21 4 -198 62 -224 74
-30 13 -59 23 -73 26 -8 1 -21 6 -30 10 -9 4 -19 8 -22 8 -3 1 -24 9 -45 18
-73 31 -120 51 -125 53 -74 20 -466 233 -557 301 -17 13 -34 24 -37 24 -3 0
-17 11 -32 25 -15 14 -33 25 -40 25 -7 0 -14 4 -16 8 -1 5 -43 43 -93 84 -92
77 -213 199 -275 277 -19 24 -39 48 -45 55 -36 41 -119 178 -164 271 -29 61
-57 117 -62 126 -8 16 -27 85 -30 104 0 6 -5 15 -9 20 -9 11 -48 185 -49 215
0 8 -3 40 -7 70 -16 119 -2 388 25 478 1 1 1 4 1 7 1 9 31 110 37 125 3 8 7
22 9 30 11 56 114 262 181 362 75 112 220 278 243 278 4 0 13 -21 20 -47 20
-72 96 -251 135 -316 19 -32 35 -61 35 -64 0 -14 122 -180 185 -252 98 -112
253 -254 365 -336 30 -22 61 -45 68 -52 6 -6 21 -15 32 -18 11 -3 20 -11 20
-16 0 -5 7 -9 15 -9 8 0 15 -4 15 -8 0 -5 12 -15 28 -22 15 -8 38 -22 52 -31
104 -69 421 -231 615 -314 161 -69 575 -234 600 -239 25 -5 133 -48 160 -63
41 -24 139 -23 187 0 38 18 98 84 106 115 2 9 6 38 9 63 9 88 -57 180 -150
209 -43 14 -236 85 -272 100 -11 5 -58 23 -105 40 -47 18 -89 35 -95 38 -5 4
-14 7 -20 8 -14 3 -324 133 -349 147 -12 6 -23 12 -26 12 -3 0 -26 11 -53 22
-26 12 -50 22 -54 22 -3 -1 -9 3 -12 8 -3 4 -42 26 -86 47 -88 43 -321 181
-343 202 -7 8 -17 14 -22 14 -5 0 -15 6 -22 13 -7 7 -29 24 -48 37 -19 13 -37
27 -40 30 -3 3 -34 30 -70 60 -92 77 -173 163 -239 250 -31 41 -60 78 -66 82
-5 4 -7 8 -3 8 4 0 -3 16 -17 35 -26 39 -104 197 -110 223 -3 10 -14 44 -25
77 -12 33 -22 71 -24 85 -1 14 -4 30 -8 35 -5 9 -9 31 -25 150 -9 65 -9 327 0
385 4 25 10 63 14 85 3 22 7 49 8 60 5 38 56 210 82 275 91 233 219 431 385
601 75 76 265 235 358 299 19 13 37 27 40 30 3 3 28 20 55 38 67 43 74 48 118
77 20 13 37 22 37 19 0 -3 12 4 28 15 15 11 30 21 33 21 3 0 5 -80 5 -177z
m-2336 -3895 c23 -60 59 -140 81 -179 21 -40 39 -74 39 -76 0 -2 23 -38 50
-80 28 -42 50 -79 50 -84 0 -4 3 -9 8 -11 4 -1 27 -29 51 -62 24 -32 51 -66
60 -75 10 -10 24 -27 33 -40 34 -48 200 -210 314 -307 108 -92 399 -294 422
-294 6 0 12 -3 14 -7 11 -25 407 -217 603 -293 88 -34 169 -66 180 -70 11 -5
38 -14 60 -20 22 -6 49 -15 60 -20 55 -22 381 -112 437 -120 4 -1 22 -6 40
-11 18 -5 44 -12 58 -14 14 -3 57 -12 95 -20 39 -8 86 -17 105 -21 19 -3 38
-8 41 -9 3 -2 28 -7 55 -10 27 -4 58 -9 68 -12 11 -3 36 -7 55 -9 20 -2 47 -6
61 -9 37 -7 146 -23 215 -30 42 -5 123 -15 165 -21 31 -4 74 -8 200 -19 313
-26 630 -36 1275 -38 444 -2 493 -4 522 -19 62 -34 112 -95 128 -153 9 -35 10
-98 3 -111 -3 -5 -8 -21 -12 -36 -12 -51 -101 -131 -160 -144 -11 -3 -194 -5
-406 -6 -212 -1 -400 -5 -419 -10 -145 -41 -193 -222 -89 -339 47 -53 82 -63
228 -65 74 -1 146 -2 160 -3 l25 -1 -1 -560 c0 -308 -3 -562 -7 -566 -7 -8
-4941 -9 -4954 -1 -6 4 -10 1099 -4 1127 1 3 869 5 1929 5 2123 0 1951 -5
2020 62 66 64 81 157 37 239 -27 51 -48 70 -105 95 -33 15 -223 17 -2206 17
-2156 0 -2171 0 -2216 20 -125 55 -179 196 -120 314 31 62 50 81 115 112 46
23 57 24 303 24 276 1 303 4 349 35 61 42 87 87 96 162 8 72 -42 157 -115 194
-46 22 -59 24 -251 25 -112 0 -206 3 -208 6 -3 3 -8 24 -12 47 -3 23 -8 57
-12 75 -8 46 -12 458 -4 458 3 0 6 10 7 23 0 26 12 111 19 147 3 14 8 41 11
60 3 19 10 42 14 50 4 8 10 29 13 45 3 17 10 42 16 58 6 15 13 38 15 50 8 37
50 142 58 145 4 2 8 9 8 16 0 13 22 66 40 96 5 8 19 35 31 60 42 83 206 327
215 317 1 -1 21 -50 44 -109z m1170 -4403 c52 0 103 3 112 7 9 5 19 5 21 1 6
-10 210 -9 225 1 6 3 13 3 15 -1 6 -10 210 -9 225 1 6 3 13 3 15 -1 3 -5 67
-7 142 -7 l137 2 -269 -264 c-147 -145 -271 -264 -275 -264 -5 0 -8 -6 -9 -12
0 -7 -14 -24 -30 -37 l-31 -24 -116 116 c-65 64 -202 199 -305 301 l-188 185
96 -2 c53 -1 101 1 108 5 6 4 16 4 21 0 6 -3 53 -6 106 -7z m2498 -269 c-152
-149 -290 -284 -307 -300 l-30 -29 -193 191 c-106 105 -241 238 -300 296 -60
57 -108 106 -108 108 0 3 273 5 607 5 l606 0 -275 -271z m-1019 -240 c135
-135 278 -276 318 -314 l71 -70 -314 -311 c-173 -171 -320 -313 -325 -317 -6
-3 -136 119 -290 272 -154 154 -284 281 -289 282 -6 2 -8 8 -4 13 3 5 -1 9 -8
10 -7 0 -23 13 -35 28 l-23 29 118 115 c389 383 517 507 525 507 5 0 120 -110
256 -244z m1387 -13 c-3 -16 -8 -53 -11 -83 -6 -60 -13 -115 -21 -171 -2 -20
-7 -56 -9 -80 -8 -81 -16 -144 -20 -159 -5 -21 -18 -151 -17 -172 0 -10 -2
-18 -6 -18 -4 0 -78 71 -165 158 l-157 158 200 197 c110 108 203 197 206 197
3 0 3 -12 0 -27z m-276 -1077 c81 -80 135 -141 134 -152 0 -20 -13 -125 -20
-159 -2 -11 -123 -139 -270 -283 l-266 -264 -78 79 c-43 43 -181 180 -306 304
-126 124 -235 233 -243 242 -12 15 7 38 187 215 111 108 255 250 321 316 l120
118 143 -141 c79 -78 204 -202 278 -275z m-2043 152 c140 -139 282 -279 314
-311 32 -32 59 -61 59 -65 0 -8 -630 -632 -639 -632 -3 0 -25 19 -47 43 -23
23 -141 140 -262 260 -122 120 -223 226 -226 235 -3 10 -8 44 -11 77 -4 33 -8
69 -9 80 -2 14 75 97 273 292 152 150 280 273 284 273 5 0 123 -114 264 -252z
m952 -942 c146 -146 289 -287 317 -315 l52 -50 -320 -316 c-176 -174 -324
-315 -329 -313 -4 2 -150 144 -324 316 l-317 314 318 314 c176 172 323 314
328 314 4 0 128 -119 275 -264z m-1565 -315 l50 -51 -60 -60 c-32 -33 -61 -60
-64 -60 -3 0 -7 15 -9 33 -1 17 -4 46 -6 62 -3 24 -14 120 -17 144 -3 35 3 38
30 11 15 -15 49 -51 76 -79z m2681 37 c-4 -35 -9 -74 -10 -88 -4 -41 -16 -115
-19 -118 -5 -4 -116 111 -116 120 0 11 132 146 143 147 5 1 5 -27 2 -61z
m-1615 -1109 c0 -14 -53 -16 -518 -17 -384 0 -519 3 -519 11 -1 7 -4 28 -7 47
-3 19 -8 62 -12 95 -3 33 -7 74 -9 90 -2 17 -7 56 -10 87 l-6 58 182 180 183
179 358 -357 c197 -197 358 -365 358 -373z m1350 546 l181 -179 -7 -46 c-3
-25 -8 -58 -9 -75 -2 -16 -6 -52 -9 -80 -3 -27 -8 -75 -12 -105 -3 -30 -10
-59 -14 -64 -7 -7 -924 -12 -1049 -7 -8 1 150 163 350 360 200 197 369 363
374 369 6 5 11 9 12 8 1 0 83 -82 183 -181z m86 -983 c-2 -4 -7 -36 -11 -72
-7 -73 -9 -88 -20 -180 -4 -36 -10 -81 -12 -100 -3 -32 -7 -64 -11 -97 -1 -6
-10 -12 -19 -12 -77 0 -135 0 -148 -1 -8 0 -22 0 -30 0 -49 -2 -155 -1 -177 1
-7 0 -24 0 -38 0 -14 -1 -32 -1 -40 0 -8 0 -26 0 -40 0 -14 -1 -32 -1 -40 0
-8 0 -26 0 -40 0 -14 -1 -49 -2 -77 -1 -29 0 -59 -1 -65 -1 -7 -1 -29 -1 -48
0 -19 1 -42 1 -50 0 -8 -1 -31 -1 -50 0 -19 1 -42 1 -50 0 -8 -1 -31 0 -50 1
-32 1 -130 2 -165 0 -8 0 -22 0 -30 0 -8 -1 -40 -1 -70 -1 -30 0 -62 0 -70 1
-8 0 -23 0 -32 0 -10 0 -34 0 -53 1 -19 1 -42 1 -50 0 -8 -1 -31 -1 -50 0 -19
1 -41 1 -47 0 -31 -3 -142 -3 -193 -1 -19 1 -41 2 -47 1 -31 -3 -142 -3 -193
-1 -19 1 -41 2 -47 1 -7 -1 -19 -1 -25 -2 -7 -1 -29 0 -48 1 -19 0 -61 1 -92
0 -32 -1 -61 1 -66 4 -4 2 -14 1 -22 -4 -22 -14 -60 10 -61 39 0 14 -2 40 -4
56 -2 17 -6 50 -9 75 -3 25 -8 63 -11 85 -3 22 -7 60 -10 85 -2 25 -4 45 -5
45 -1 0 -3 19 -6 43 l-4 42 1216 0 c668 0 1213 -3 1210 -8z"/>
</g>
</svg>
